<svg id="e3r44qp173361" xmlns="http://www.w3.org/2000/svg" xmlns:xlink="http://www.w3.org/1999/xlink" viewBox="0 0 1177.192000 137.078670" shape-rendering="geometricPrecision" text-rendering="geometricPrecision"><style><![CDATA[#e3r44qp173366_to {animation: e3r44qp173366_to__to 1500ms linear 1 normal forwards}@keyframes e3r44qp173366_to__to { 0% {transform: translate(0px,137.079000px);animation-timing-function: cubic-bezier(0,0,0.580000,1)} 93.333333% {transform: translate(0px,271.079000px)} 100% {transform: translate(0px,271.079000px)} }#e3r44qp173366 {animation: e3r44qp173366_c_o 1500ms linear 1 normal forwards}@keyframes e3r44qp173366_c_o { 0% {opacity: 1} 93.333333% {opacity: 0} 100% {opacity: 0} }]]></style><defs><clipPath id="e3r44qp173362"><path id="e3r44qp173363" d="M0,102.809000L882.894000,102.809000L882.894000,0L0,0Z" fill="rgb(0,0,0)" stroke="none" stroke-width="1"/></clipPath><clipPath id="e3r44qp173364"><path id="e3r44qp173365" d="M0,102.809000L882.894000,102.809000L882.894000,0L0,0Z" fill="rgb(0,0,0)" stroke="none" stroke-width="1"/></clipPath></defs><g id="e3r44qp173366_to" transform="translate(0,137.079000)"><g id="e3r44qp173366" transform="rotate(-180) scale(-1.333330,1.333330) translate(0,0)"><g id="e3r44qp173367"><g id="e3r44qp173368" clip-path="url(#e3r44qp173362)"><text id="e3r44qp173369" dx="0" dy="0" font-family="Intro" font-size="129.439000" transform="matrix(0.98210100000000 0 0 -1 631.70000000000005 5.10070375019689)" fill="rgb(241,81,27)" stroke="none" stroke-width="1"><![CDATA[PAY]]></text></g></g><g id="e3r44qp1733610" transform="matrix(1 0 0 1 627.76900000000001 95.91780000000000)"><path id="e3r44qp1733611" d="M0,0L-23.469000,0L-23.469000,-32.576000L-51.171000,-32.576000L-51.171000,0L-74.639000,0L-74.639000,-89.771000L-51.171000,-89.771000L-51.171000,-53.736000L-23.469000,-53.736000L-23.469000,-89.771000L0,-89.771000Z" fill="rgb(0,0,0)" stroke="none" stroke-width="1"/></g><g id="e3r44qp1733612"><g id="e3r44qp1733613" clip-path="url(#e3r44qp173364)"><g id="e3r44qp1733614" transform="matrix(1 0 0 1 490.22600000000000 33.59210000000000)"><path id="e3r44qp1733615" d="M0,0L-22.187000,0C-22.699000,-39.501000,50.399000,-38.858000,50.399000,-1.155000C50.399000,21.287000,32.957000,23.979000,15.132000,25.903000C7.054000,26.801000,0.385000,28.212000,0.897000,35.010000C1.666000,45.653000,25.776000,46.680000,25.776000,34.752000L47.578000,34.752000C48.092000,73.483000,-21.675000,73.483000,-20.906000,34.752000C-20.646000,15.259000,-7.824000,8.590000,11.671000,7.181000C20.646000,6.666000,28.085000,5.257000,28.085000,-1.028000C28.085000,-11.542000,0,-11.415000,0,0" fill="rgb(0,0,0)" stroke="none" stroke-width="1"/></g><g id="e3r44qp1733616" transform="matrix(1 0 0 1 445.12200000000001 26.28060000000000)"><path id="e3r44qp1733617" d="M0,0L0,49.631000L10.516000,49.631000L10.516000,69.637000L-33.217000,69.637000L-33.217000,49.631000L-22.699000,49.631000L-22.699000,0L-34.112000,0L-34.112000,-20.133000L11.413000,-20.133000L11.413000,0Z" fill="rgb(0,0,0)" stroke="none" stroke-width="1"/></g><g id="e3r44qp1733618" transform="matrix(1 0 0 1 335.36200000000002 94.50709999999999)"><path id="e3r44qp1733619" d="M0,0L-15.005000,-47.708000L-15.390000,-47.708000L-19.364000,-32.446000L-30.906000,1.411000L-54.118000,1.411000L-54.118000,-2.052000L-22.570000,-89.259000L-9.875000,-89.259000L4.489000,-46.040000L4.874000,-46.040000L19.237000,-89.259000L32.445000,-89.259000L63.609000,-2.052000L63.609000,1.411000L40.783000,1.411000L29.369000,-32.446000L25.394000,-47.708000L25.010000,-47.708000L9.747000,0Z" fill="rgb(0,0,0)" stroke="none" stroke-width="1"/></g><g id="e3r44qp1733620" transform="matrix(1 0 0 1 210.84999999999999 50.90410000000000)"><path id="e3r44qp1733621" d="M0,0C0,32.317000,45.016000,32.317000,45.016000,0C45.016000,-32.575000,0,-32.575000,0,0M68.484000,0C68.484000,62.070000,-23.595000,62.070000,-23.595000,0C-23.595000,-62.199000,68.484000,-62.199000,68.484000,0" fill="rgb(0,0,0)" stroke="none" stroke-width="1"/></g><g id="e3r44qp1733622" transform="matrix(1 0 0 1 144.29200000000000 52.95490000000000)"><path id="e3r44qp1733623" d="M0,0L-16.415000,0L-16.415000,22.444000C-11.029000,22.444000,-5.386000,22.572000,0,22.444000C13.081000,22.316000,12.441000,0,0,0M18.980000,-15.005000C41.679000,0.384000,35.269000,42.834000,0,42.963000L-39.370000,42.963000L-39.370000,-46.808000L-16.415000,-46.808000L-16.415000,-20.391000L-4.488000,-20.391000L10.901000,-46.808000L36.551000,-46.808000L36.551000,-43.474000Z" fill="rgb(0,0,0)" stroke="none" stroke-width="1"/></g><g id="e3r44qp1733624" transform="matrix(1 0 0 1 3.22640000000000 51.03110000000000)"><path id="e3r44qp1733625" d="M0,0C0.127000,-30.649000,23.211000,-45.910000,46.039000,-45.910000C62.583000,-45.910000,79.640000,-38.729000,86.052000,-20.006000C89.129000,-11.285000,89.129000,-2.693000,88.617000,6.285000L46.168000,6.285000L46.168000,-13.593000L65.276000,-13.593000C61.173000,-22.186000,55.272000,-24.624000,46.039000,-24.624000C32.445000,-24.624000,23.726000,-14.875000,23.726000,0C23.726000,13.724000,31.549000,25.009000,46.039000,25.009000C55.144000,25.009000,61.044000,21.932000,64.765000,14.235000L87.336000,14.235000C82.975000,36.551000,64.121000,45.912000,46.039000,46.040000C23.211000,46.040000,0.127000,30.650000,0,0" fill="rgb(0,0,0)" stroke="none" stroke-width="1"/></g></g></g></g></g></svg>